<?xml version="1.0" standalone="no"?><!DOCTYPE svg PUBLIC "-//W3C//DTD SVG 1.1//EN" "http://www.w3.org/Graphics/SVG/1.1/DTD/svg11.dtd"><svg t="1738388162704" class="icon" viewBox="0 0 1024 1024" version="1.1" xmlns="http://www.w3.org/2000/svg" p-id="13473" xmlns:xlink="http://www.w3.org/1999/xlink" width="200" height="200"><path d="M416 576A266.666667 266.666667 0 1 1 682.666667 309.333333 267.093333 267.093333 0 0 1 416 576z m0-448a181.333333 181.333333 0 1 0 181.333333 181.333333A181.546667 181.546667 0 0 0 416 128z" fill="#333333" p-id="13474"></path><path d="M789.333333 981.333333a42.666667 42.666667 0 0 1-42.666666-42.666666c0-199.893333-148.266667-362.666667-330.666667-362.666667S85.333333 738.773333 85.333333 938.666667a42.666667 42.666667 0 0 1-85.333333 0c0-247.04 186.666667-448 416-448S832 691.626667 832 938.666667a42.666667 42.666667 0 0 1-42.666667 42.666666zM768 554.666667a42.666667 42.666667 0 0 1 0-85.333334 106.666667 106.666667 0 0 0 0-213.333333 42.666667 42.666667 0 0 1 0-85.333333 192 192 0 0 1 0 384z" fill="#333333" p-id="13475"></path><path d="M981.333333 810.666667a42.666667 42.666667 0 0 1-42.666666-42.666667c0-117.546667-76.586667-213.333333-170.666667-213.333333a42.666667 42.666667 0 0 1 0-85.333334c141.226667 0 256 133.973333 256 298.666667a42.666667 42.666667 0 0 1-42.666667 42.666667z" fill="#333333" p-id="13476"></path></svg>