<?xml version="1.0" standalone="no"?><!DOCTYPE svg PUBLIC "-//W3C//DTD SVG 1.1//EN" "http://www.w3.org/Graphics/SVG/1.1/DTD/svg11.dtd"><svg t="1740269492414" class="icon" viewBox="0 0 1024 1024" version="1.1" xmlns="http://www.w3.org/2000/svg" p-id="5756" xmlns:xlink="http://www.w3.org/1999/xlink" width="200" height="200"><path d="M888.490667 63.488H135.509333c-39.808 0-72.021333 32.213333-72.021333 72.021333v753.066667c0 39.808 32.213333 72.021333 72.021333 72.021333h753.066667c39.808 0 72.021333-32.213333 72.021333-71.978666V135.509333a72.149333 72.149333 0 0 0-72.106666-72.021333z m-116.309334 293.12l-359.466666 360.576-0.426667 0.426667a35.669333 35.669333 0 0 1-26.282667 11.392 36.053333 36.053333 0 0 1-31.317333-18.218667l-108.8-190.464a35.925333 35.925333 0 0 1 13.397333-49.109333 35.925333 35.925333 0 0 1 49.109334 13.397333l85.418666 149.504 327.466667-328.533333a35.712 35.712 0 0 1 50.816 0.128c14.08 13.994667 14.08 36.778667 0.085333 50.901333z" fill="#1afa29" opacity=".65" p-id="5757"></path></svg>