<?xml version="1.0" standalone="no"?><!DOCTYPE svg PUBLIC "-//W3C//DTD SVG 1.1//EN" "http://www.w3.org/Graphics/SVG/1.1/DTD/svg11.dtd"><svg t="1742816234113" class="icon" viewBox="0 0 1024 1024" version="1.1" xmlns="http://www.w3.org/2000/svg" p-id="9416" xmlns:xlink="http://www.w3.org/1999/xlink" width="32" height="32"><path d="M512 0C230 0 0 229.875 0 512s230 512 512 512 512-230 512-512S794 0 512 0z m14.375 544.25c61.125 0 115-37.75 134.75-95.25 3.625-10.75 16.125-16.125 27-12.625 10.75 3.625 16.125 16.125 12.625 27-25.125 64.625-84.375 111.375-154.5 118.625v70h88c10.75 0 19.75 9 19.75 19.75s-9 19.75-19.75 19.75H546.25v88.125c0 10.75-9 19.75-19.75 19.75-10.75 0-19.75-9-19.75-19.75v-88H418.75c-10.75 0-19.75-9-19.75-19.75s9-19.75 19.75-19.75h88v-70c-93.375-9-165.25-88-165.25-181.5 0-102.375 82.625-185 185-185 77.25 0 147.25 48.5 174.25 122.125 3.625 10.75-1.75 21.5-12.625 27-10.75 3.625-21.5-1.75-27-12.625-19.75-57.5-73.625-95.25-134.75-95.25-79 0-143.75 64.625-143.75 143.75 0 79 64.75 143.625 143.75 143.625z" fill="#FF8FB9" p-id="9417"></path></svg>