<?xml version="1.0" standalone="no"?><!DOCTYPE svg PUBLIC "-//W3C//DTD SVG 1.1//EN" "http://www.w3.org/Graphics/SVG/1.1/DTD/svg11.dtd"><svg t="1742816245983" class="icon" viewBox="0 0 1024 1024" version="1.1" xmlns="http://www.w3.org/2000/svg" p-id="9559" xmlns:xlink="http://www.w3.org/1999/xlink" width="32" height="32"><path d="M512 512m-512 0a512 512 0 1 0 1024 0 512 512 0 1 0-1024 0Z" fill="#D2F1FF" p-id="9560"></path><path d="M649.57833155 750.75243213a248.55134815 248.55134815 0 1 1-351.50468801-351.50468801 248.55134815 248.55134815 0 0 1 351.50468801 351.50468801z m-35.15046904-35.15046905a198.84107852 198.84107852 0 1 0-281.20374992-281.20374993 198.84107852 198.84107852 0 0 0 281.20374992 281.20374993z" fill="#6ad1ff" p-id="9561"></path><path d="M614.42786251 434.39821315l175.75234401-175.752344 35.15046904 35.15046905-175.75234401 175.75234401z" fill="#6ad1ff" p-id="9562"></path><path d="M638.03396369 251.36596886m24.85513482 0l149.13080888 0q24.85513482 0 24.85513482 24.85513481l0 0q0 24.85513482-24.85513482 24.85513482l-149.13080888 0q-24.85513482 0-24.85513482-24.85513482l0 0q0-24.85513482 24.85513482-24.85513481Z" fill="#6ad1ff" p-id="9563"></path><path d="M831.99341242 445.34740249m0-24.85513482l0-149.13080889q0-24.85513482-24.85513482-24.85513481l0 0q-24.85513482 0-24.85513481 24.85513481l0 149.13080889q0 24.85513482 24.85513481 24.85513482l0 0q24.85513482 0 24.85513482-24.85513482Z" fill="#6ad1ff" p-id="9564"></path></svg>