<?xml version="1.0" standalone="no"?><!DOCTYPE svg PUBLIC "-//W3C//DTD SVG 1.1//EN" "http://www.w3.org/Graphics/SVG/1.1/DTD/svg11.dtd"><svg t="1742816475451" class="icon" viewBox="0 0 1024 1024" version="1.1" xmlns="http://www.w3.org/2000/svg" p-id="13352" xmlns:xlink="http://www.w3.org/1999/xlink" width="32" height="32"><path d="M917.333333 448h-298.666666a21.333333 21.333333 0 0 0 0 42.666667h298.666666a21.333333 21.333333 0 0 0 0-42.666667z m-597.333333-85.333333A234.922667 234.922667 0 0 0 85.333333 597.333333c0 64.597333 26.24 123.178667 68.650667 165.674667 0.128 0.128 0.128 0.298667 0.213333 0.384 0.554667 0.554667 1.237333 0.938667 1.834667 1.493333 10.069333 9.856 20.906667 18.858667 32.597333 26.752 1.536 1.066667 3.2 1.92 4.778667 2.944 11.264 7.253333 23.04 13.696 35.498667 18.986667 1.578667 0.682667 3.2 1.109333 4.778666 1.749333 12.672 5.034667 25.856 9.173333 39.509334 11.946667l2.645333 0.384c14.293333 2.773333 29.056 4.352 44.16 4.352s29.866667-1.578667 44.16-4.309333c0.896-0.170667 1.792-0.213333 2.645333-0.384 13.653333-2.773333 26.794667-6.912 39.509334-11.946667 1.578667-0.64 3.2-1.109333 4.778666-1.749333a232.106667 232.106667 0 0 0 35.498667-18.986667c1.578667-1.024 3.2-1.877333 4.778667-2.944 11.690667-7.936 22.570667-16.938667 32.64-26.794667 0.554667-0.554667 1.237333-0.938667 1.792-1.493333 0.128-0.128 0.128-0.256 0.213333-0.384A233.813333 233.813333 0 0 0 554.666667 597.333333c0-129.408-105.301333-234.666667-234.666667-234.666666z m115.242667 387.242666c-4.437333 3.328-8.832 6.741333-13.525334 9.6-3.882667 2.432-8.106667 4.437333-12.16 6.613334a199.253333 199.253333 0 0 1-179.328-0.128c-3.925333-2.090667-7.978667-4.010667-11.733333-6.4-4.864-2.986667-9.386667-6.485333-13.994667-9.941334a208.213333 208.213333 0 0 1-9.557333-7.893333C217.429333 693.162667 266.026667 661.333333 320 661.333333s102.528 31.829333 125.098667 80.469334c-3.242667 2.773333-6.442667 5.546667-9.856 8.106666zM256 554.666667c0-35.285333 28.714667-64 64-64S384 519.381333 384 554.666667s-28.714667 64-64 64S256 589.952 256 554.666667z m219.648 154.197333a182.186667 182.186667 0 0 0-84.864-75.008A106.026667 106.026667 0 0 0 426.666667 554.666667c0-58.794667-47.829333-106.666667-106.666667-106.666667S213.333333 495.872 213.333333 554.666667c0 31.530667 14.037333 59.605333 35.84 79.189333a181.845333 181.845333 0 0 0-84.821333 75.008A190.378667 190.378667 0 0 1 128 597.333333c0-105.856 86.144-192 192-192S512 491.477333 512 597.333333c0 41.685333-13.696 80-36.352 111.530667zM917.333333 576h-298.666666a21.333333 21.333333 0 0 0 0 42.666667h298.666666a21.333333 21.333333 0 0 0 0-42.666667z m0-341.333333H640V128a21.333333 21.333333 0 0 0-21.333333-21.333333h-170.666667a21.333333 21.333333 0 0 0-21.333333 21.333333v106.666667H106.666667A106.794667 106.794667 0 0 0 0 341.333333v469.333334c0 58.794667 47.829333 106.666667 106.666667 106.666666h810.666666c58.837333 0 106.666667-47.872 106.666667-106.666666V341.333333c0-58.794667-47.829333-106.666667-106.666667-106.666666zM469.333333 149.333333h128v128h-128v-128zM981.333333 810.666667c0 35.285333-28.714667 64-64 64h-810.666666c-35.285333 0-64-28.714667-64-64V341.333333c0-35.285333 28.714667-64 64-64H426.666667V298.666667a21.333333 21.333333 0 0 0 21.333333 21.333333h170.666667A21.333333 21.333333 0 0 0 640 298.666667v-21.333334h277.333333c35.285333 0 64 28.714667 64 64v469.333334z m-64-106.666667h-298.666666a21.333333 21.333333 0 0 0 0 42.666667h298.666666a21.333333 21.333333 0 0 0 0-42.666667z" p-id="13353" fill="#1296db"></path></svg>