<?xml version="1.0" standalone="no"?><!DOCTYPE svg PUBLIC "-//W3C//DTD SVG 1.1//EN" "http://www.w3.org/Graphics/SVG/1.1/DTD/svg11.dtd"><svg t="1739768539659" class="icon" viewBox="0 0 1024 1024" version="1.1" xmlns="http://www.w3.org/2000/svg" p-id="5784" xmlns:xlink="http://www.w3.org/1999/xlink" width="200" height="200"><path d="M512 10.24C235.52 10.24 10.24 235.52 10.24 512S235.52 1013.76 512 1013.76 1013.76 788.48 1013.76 512 788.48 10.24 512 10.24z m0 798.72c-30.72 0-58.026667-27.306667-58.026667-58.026667 0-30.72 27.306667-58.026667 58.026667-58.026666 30.72 0 58.026667 27.306667 58.026667 58.026666 0 17.066667-6.826667 30.72-17.066667 40.96-10.24 10.24-23.893333 17.066667-40.96 17.066667z m58.026667-252.586667c0 30.72-27.306667 58.026667-58.026667 58.026667-30.72 0-58.026667-27.306667-58.026667-58.026667v-273.066666c0-30.72 27.306667-58.026667 58.026667-58.026667 30.72 0 58.026667 27.306667 58.026667 58.026667v273.066666z" p-id="5785" fill="#d81e06"></path></svg>