<?xml version="1.0" standalone="no"?><!DOCTYPE svg PUBLIC "-//W3C//DTD SVG 1.1//EN" "http://www.w3.org/Graphics/SVG/1.1/DTD/svg11.dtd"><svg t="1737991307548" class="icon" viewBox="0 0 1182 1024" version="1.1" xmlns="http://www.w3.org/2000/svg" p-id="5865" xmlns:xlink="http://www.w3.org/1999/xlink" width="230.859375" height="200"><path d="M295.598598 1024L0 512.002621 295.598598 0h591.207677L1182.415355 512.002621l-295.60908 511.997379z" fill="#F78383" p-id="5866"></path><path d="M591.207678 590.542045c-28.947163 0-52.412028-23.470106-52.412029-52.412028V228.044734c0-28.947163 23.464865-52.412028 52.412029-52.412028 28.941922 0 52.412028 23.464865 52.412028 52.412028v310.085283c0 28.941922-23.464865 52.412028-52.412028 52.412028zM591.207678 809.131649c-28.947163 0-52.412028-23.470106-52.412029-52.412028V700.801228c0-28.941922 23.464865-52.412028 52.412029-52.412028 28.941922 0 52.412028 23.470106 52.412028 52.412028v55.918393c0 28.941922-23.464865 52.412028-52.412028 52.412028z" fill="#FFFFFF" p-id="5867"></path></svg>